<svg width="364" height="190" viewBox="0 0 364 190" fill="none" xmlns="http://www.w3.org/2000/svg">
<path d="M257 49.4795H240V63.334H364V139.532H224V90.0527H137V49.4795H120V0H257V49.4795Z" fill="#F5F4EC"/>
<mask id="path-2-inside-1_43822_3808" fill="white">
<path d="M237 73.2295H220V87.084H344V163.282H204V113.803H137V149.427H133V190H19V149.427H0V99.9473H117V73.2295H100V23.75H237V73.2295Z"/>
</mask>
<path d="M237 73.2295V75.2295H239V73.2295H237ZM220 73.2295V71.2295H218V73.2295H220ZM220 87.084H218V89.084H220V87.084ZM344 87.084H346V85.084H344V87.084ZM344 163.282V165.282H346V163.282H344ZM204 163.282H202V165.282H204V163.282ZM204 113.803H206V111.803H204V113.803ZM137 113.803V111.803H135V113.803H137ZM137 149.427V151.427H139V149.427H137ZM133 149.427V147.427H131V149.427H133ZM133 190V192H135V190H133ZM19 190H17V192H19V190ZM19 149.427H21V147.427H19V149.427ZM0 149.427H-2V151.427H0V149.427ZM0 99.9473V97.9473H-2V99.9473H0ZM117 99.9473V101.947H119V99.9473H117ZM117 73.2295H119V71.2295H117V73.2295ZM100 73.2295H98V75.2295H100V73.2295ZM100 23.75V21.75H98V23.75H100ZM237 23.75H239V21.75H237V23.75ZM237 73.2295V71.2295H220V73.2295V75.2295H237V73.2295ZM220 73.2295H218V87.084H220H222V73.2295H220ZM220 87.084V89.084H344V87.084V85.084H220V87.084ZM344 87.084H342V163.282H344H346V87.084H344ZM344 163.282V161.282H204V163.282V165.282H344V163.282ZM204 163.282H206V113.803H204H202V163.282H204ZM204 113.803V111.803H137V113.803V115.803H204V113.803ZM137 113.803H135V149.427H137H139V113.803H137ZM137 149.427V147.427H133V149.427V151.427H137V149.427ZM133 149.427H131V190H133H135V149.427H133ZM133 190V188H19V190V192H133V190ZM19 190H21V149.427H19H17V190H19ZM19 149.427V147.427H0V149.427V151.427H19V149.427ZM0 149.427H2V99.9473H0H-2V149.427H0ZM0 99.9473V101.947H117V99.9473V97.9473H0V99.9473ZM117 99.9473H119V73.2295H117H115V99.9473H117ZM117 73.2295V71.2295H100V73.2295V75.2295H117V73.2295ZM100 73.2295H102V23.75H100H98V73.2295H100ZM100 23.75V25.75H237V23.75V21.75H100V23.75ZM237 23.75H235V73.2295H237H239V23.75H237Z" fill="#E8E4E3" fill-opacity="0.4" mask="url(#path-2-inside-1_43822_3808)"/>
</svg>
