<svg width="560" height="324" viewBox="0 0 560 324" fill="none" xmlns="http://www.w3.org/2000/svg">
<path d="M423 177.902L423 127.902H440V113.902L316 113.902L316 36.9024L456 36.9024V86.9024L543 86.9024L543 127.902H560V177.902L423 177.902Z" fill="#D43929"/>
<path d="M274.2 0.500055V49.7003H297.75V0.500055H343.9V47.6504H431.8V135.8H451V185H485.35V269.05H526.35V323.4H371.55V269.05H414.6V229.1H367.45V185H400V140.95H297.75V93.7999H144V48.7003H136.85V95.8497H118.4V140.95H6.6504V95.8497H0.500014V47.6504H137.85V0.500055H274.2Z" stroke="#E8E4E3" stroke-opacity="0.4"/>
</svg>
